<?xml version="1.0" encoding="utf-8" standalone="no"?>
<!DOCTYPE svg PUBLIC "-//W3C//DTD SVG 1.1//EN"
  "http://www.w3.org/Graphics/SVG/1.1/DTD/svg11.dtd">
<!-- Created with matplotlib (https://matplotlib.org/) -->
<svg height="605.52pt" version="1.1" viewBox="0 0 972 605.52" width="972pt" xmlns="http://www.w3.org/2000/svg" xmlns:xlink="http://www.w3.org/1999/xlink">
 <metadata>
  <rdf:RDF xmlns:cc="http://creativecommons.org/ns#" xmlns:dc="http://purl.org/dc/elements/1.1/" xmlns:rdf="http://www.w3.org/1999/02/22-rdf-syntax-ns#">
   <cc:Work>
    <dc:type rdf:resource="http://purl.org/dc/dcmitype/StillImage"/>
    <dc:date>2022-06-04T11:55:17.801317</dc:date>
    <dc:format>image/svg+xml</dc:format>
    <dc:creator>
     <cc:Agent>
      <dc:title>Matplotlib v3.3.4, https://matplotlib.org/</dc:title>
     </cc:Agent>
    </dc:creator>
   </cc:Work>
  </rdf:RDF>
 </metadata>
 <defs>
  <style type="text/css">*{stroke-linecap:butt;stroke-linejoin:round;}</style>
 </defs>
 <g id="figure_1">
  <g id="patch_1">
   <path d="M 0 605.52 
L 972 605.52 
L 972 0 
L 0 0 
z
" style="fill:#ffffff;"/>
  </g>
  <g id="axes_1">
   <g id="patch_2">
    <path d="M 121.5 538.9128 
L 874.8 538.9128 
L 874.8 72.6624 
L 121.5 72.6624 
z
" style="fill:#ffffff;"/>
   </g>
   <g id="matplotlib.axis_1">
    <g id="xtick_1">
     <g id="line2d_1">
      <path clip-path="url(#pd43d118f4f)" d="M 155.740909 538.9128 
L 155.740909 72.6624 
" style="fill:none;stroke:#b0b0b0;stroke-linecap:square;stroke-width:0.8;"/>
     </g>
     <g id="line2d_2">
      <defs>
       <path d="M 0 0 
L 0 3.5 
" id="md1a877e6c7" style="stroke:#000000;stroke-width:0.8;"/>
      </defs>
      <g>
       <use style="stroke:#000000;stroke-width:0.8;" x="155.740909" xlink:href="#md1a877e6c7" y="538.9128"/>
      </g>
     </g>
     <g id="text_1">
      <!-- 0 -->
      <g transform="translate(152.559659 553.511237)scale(0.1 -0.1)">
       <defs>
        <path d="M 31.78125 66.40625 
Q 24.171875 66.40625 20.328125 58.90625 
Q 16.5 51.421875 16.5 36.375 
Q 16.5 21.390625 20.328125 13.890625 
Q 24.171875 6.390625 31.78125 6.390625 
Q 39.453125 6.390625 43.28125 13.890625 
Q 47.125 21.390625 47.125 36.375 
Q 47.125 51.421875 43.28125 58.90625 
Q 39.453125 66.40625 31.78125 66.40625 
z
M 31.78125 74.21875 
Q 44.046875 74.21875 50.515625 64.515625 
Q 56.984375 54.828125 56.984375 36.375 
Q 56.984375 17.96875 50.515625 8.265625 
Q 44.046875 -1.421875 31.78125 -1.421875 
Q 19.53125 -1.421875 13.0625 8.265625 
Q 6.59375 17.96875 6.59375 36.375 
Q 6.59375 54.828125 13.0625 64.515625 
Q 19.53125 74.21875 31.78125 74.21875 
z
" id="DejaVuSans-48"/>
       </defs>
       <use xlink:href="#DejaVuSans-48"/>
      </g>
     </g>
    </g>
    <g id="xtick_2">
     <g id="line2d_3">
      <path clip-path="url(#pd43d118f4f)" d="M 318.948293 538.9128 
L 318.948293 72.6624 
" style="fill:none;stroke:#b0b0b0;stroke-linecap:square;stroke-width:0.8;"/>
     </g>
     <g id="line2d_4">
      <g>
       <use style="stroke:#000000;stroke-width:0.8;" x="318.948293" xlink:href="#md1a877e6c7" y="538.9128"/>
      </g>
     </g>
     <g id="text_2">
      <!-- 20 -->
      <g transform="translate(312.585793 553.511237)scale(0.1 -0.1)">
       <defs>
        <path d="M 19.1875 8.296875 
L 53.609375 8.296875 
L 53.609375 0 
L 7.328125 0 
L 7.328125 8.296875 
Q 12.9375 14.109375 22.625 23.890625 
Q 32.328125 33.6875 34.8125 36.53125 
Q 39.546875 41.84375 41.421875 45.53125 
Q 43.3125 49.21875 43.3125 52.78125 
Q 43.3125 58.59375 39.234375 62.25 
Q 35.15625 65.921875 28.609375 65.921875 
Q 23.96875 65.921875 18.8125 64.3125 
Q 13.671875 62.703125 7.8125 59.421875 
L 7.8125 69.390625 
Q 13.765625 71.78125 18.9375 73 
Q 24.125 74.21875 28.421875 74.21875 
Q 39.75 74.21875 46.484375 68.546875 
Q 53.21875 62.890625 53.21875 53.421875 
Q 53.21875 48.921875 51.53125 44.890625 
Q 49.859375 40.875 45.40625 35.40625 
Q 44.1875 33.984375 37.640625 27.21875 
Q 31.109375 20.453125 19.1875 8.296875 
z
" id="DejaVuSans-50"/>
       </defs>
       <use xlink:href="#DejaVuSans-50"/>
       <use x="63.623047" xlink:href="#DejaVuSans-48"/>
      </g>
     </g>
    </g>
    <g id="xtick_3">
     <g id="line2d_5">
      <path clip-path="url(#pd43d118f4f)" d="M 482.155676 538.9128 
L 482.155676 72.6624 
" style="fill:none;stroke:#b0b0b0;stroke-linecap:square;stroke-width:0.8;"/>
     </g>
     <g id="line2d_6">
      <g>
       <use style="stroke:#000000;stroke-width:0.8;" x="482.155676" xlink:href="#md1a877e6c7" y="538.9128"/>
      </g>
     </g>
     <g id="text_3">
      <!-- 40 -->
      <g transform="translate(475.793176 553.511237)scale(0.1 -0.1)">
       <defs>
        <path d="M 37.796875 64.3125 
L 12.890625 25.390625 
L 37.796875 25.390625 
z
M 35.203125 72.90625 
L 47.609375 72.90625 
L 47.609375 25.390625 
L 58.015625 25.390625 
L 58.015625 17.1875 
L 47.609375 17.1875 
L 47.609375 0 
L 37.796875 0 
L 37.796875 17.1875 
L 4.890625 17.1875 
L 4.890625 26.703125 
z
" id="DejaVuSans-52"/>
       </defs>
       <use xlink:href="#DejaVuSans-52"/>
       <use x="63.623047" xlink:href="#DejaVuSans-48"/>
      </g>
     </g>
    </g>
    <g id="xtick_4">
     <g id="line2d_7">
      <path clip-path="url(#pd43d118f4f)" d="M 645.36306 538.9128 
L 645.36306 72.6624 
" style="fill:none;stroke:#b0b0b0;stroke-linecap:square;stroke-width:0.8;"/>
     </g>
     <g id="line2d_8">
      <g>
       <use style="stroke:#000000;stroke-width:0.8;" x="645.36306" xlink:href="#md1a877e6c7" y="538.9128"/>
      </g>
     </g>
     <g id="text_4">
      <!-- 60 -->
      <g transform="translate(639.00056 553.511237)scale(0.1 -0.1)">
       <defs>
        <path d="M 33.015625 40.375 
Q 26.375 40.375 22.484375 35.828125 
Q 18.609375 31.296875 18.609375 23.390625 
Q 18.609375 15.53125 22.484375 10.953125 
Q 26.375 6.390625 33.015625 6.390625 
Q 39.65625 6.390625 43.53125 10.953125 
Q 47.40625 15.53125 47.40625 23.390625 
Q 47.40625 31.296875 43.53125 35.828125 
Q 39.65625 40.375 33.015625 40.375 
z
M 52.59375 71.296875 
L 52.59375 62.3125 
Q 48.875 64.0625 45.09375 64.984375 
Q 41.3125 65.921875 37.59375 65.921875 
Q 27.828125 65.921875 22.671875 59.328125 
Q 17.53125 52.734375 16.796875 39.40625 
Q 19.671875 43.65625 24.015625 45.921875 
Q 28.375 48.1875 33.59375 48.1875 
Q 44.578125 48.1875 50.953125 41.515625 
Q 57.328125 34.859375 57.328125 23.390625 
Q 57.328125 12.15625 50.6875 5.359375 
Q 44.046875 -1.421875 33.015625 -1.421875 
Q 20.359375 -1.421875 13.671875 8.265625 
Q 6.984375 17.96875 6.984375 36.375 
Q 6.984375 53.65625 15.1875 63.9375 
Q 23.390625 74.21875 37.203125 74.21875 
Q 40.921875 74.21875 44.703125 73.484375 
Q 48.484375 72.75 52.59375 71.296875 
z
" id="DejaVuSans-54"/>
       </defs>
       <use xlink:href="#DejaVuSans-54"/>
       <use x="63.623047" xlink:href="#DejaVuSans-48"/>
      </g>
     </g>
    </g>
    <g id="xtick_5">
     <g id="line2d_9">
      <path clip-path="url(#pd43d118f4f)" d="M 808.570444 538.9128 
L 808.570444 72.6624 
" style="fill:none;stroke:#b0b0b0;stroke-linecap:square;stroke-width:0.8;"/>
     </g>
     <g id="line2d_10">
      <g>
       <use style="stroke:#000000;stroke-width:0.8;" x="808.570444" xlink:href="#md1a877e6c7" y="538.9128"/>
      </g>
     </g>
     <g id="text_5">
      <!-- 80 -->
      <g transform="translate(802.207944 553.511237)scale(0.1 -0.1)">
       <defs>
        <path d="M 31.78125 34.625 
Q 24.75 34.625 20.71875 30.859375 
Q 16.703125 27.09375 16.703125 20.515625 
Q 16.703125 13.921875 20.71875 10.15625 
Q 24.75 6.390625 31.78125 6.390625 
Q 38.8125 6.390625 42.859375 10.171875 
Q 46.921875 13.96875 46.921875 20.515625 
Q 46.921875 27.09375 42.890625 30.859375 
Q 38.875 34.625 31.78125 34.625 
z
M 21.921875 38.8125 
Q 15.578125 40.375 12.03125 44.71875 
Q 8.5 49.078125 8.5 55.328125 
Q 8.5 64.0625 14.71875 69.140625 
Q 20.953125 74.21875 31.78125 74.21875 
Q 42.671875 74.21875 48.875 69.140625 
Q 55.078125 64.0625 55.078125 55.328125 
Q 55.078125 49.078125 51.53125 44.71875 
Q 48 40.375 41.703125 38.8125 
Q 48.828125 37.15625 52.796875 32.3125 
Q 56.78125 27.484375 56.78125 20.515625 
Q 56.78125 9.90625 50.3125 4.234375 
Q 43.84375 -1.421875 31.78125 -1.421875 
Q 19.734375 -1.421875 13.25 4.234375 
Q 6.78125 9.90625 6.78125 20.515625 
Q 6.78125 27.484375 10.78125 32.3125 
Q 14.796875 37.15625 21.921875 38.8125 
z
M 18.3125 54.390625 
Q 18.3125 48.734375 21.84375 45.5625 
Q 25.390625 42.390625 31.78125 42.390625 
Q 38.140625 42.390625 41.71875 45.5625 
Q 45.3125 48.734375 45.3125 54.390625 
Q 45.3125 60.0625 41.71875 63.234375 
Q 38.140625 66.40625 31.78125 66.40625 
Q 25.390625 66.40625 21.84375 63.234375 
Q 18.3125 60.0625 18.3125 54.390625 
z
" id="DejaVuSans-56"/>
       </defs>
       <use xlink:href="#DejaVuSans-56"/>
       <use x="63.623047" xlink:href="#DejaVuSans-48"/>
      </g>
     </g>
    </g>
   </g>
   <g id="matplotlib.axis_2">
    <g id="ytick_1">
     <g id="line2d_11">
      <path clip-path="url(#pd43d118f4f)" d="M 121.5 499.923783 
L 874.8 499.923783 
" style="fill:none;stroke:#b0b0b0;stroke-linecap:square;stroke-width:0.8;"/>
     </g>
     <g id="line2d_12">
      <defs>
       <path d="M 0 0 
L -3.5 0 
" id="m6f40cf154e" style="stroke:#000000;stroke-width:0.8;"/>
      </defs>
      <g>
       <use style="stroke:#000000;stroke-width:0.8;" x="121.5" xlink:href="#m6f40cf154e" y="499.923783"/>
      </g>
     </g>
     <g id="text_6">
      <!-- 0 -->
      <g transform="translate(108.1375 503.723002)scale(0.1 -0.1)">
       <use xlink:href="#DejaVuSans-48"/>
      </g>
     </g>
    </g>
    <g id="ytick_2">
     <g id="line2d_13">
      <path clip-path="url(#pd43d118f4f)" d="M 121.5 446.911663 
L 874.8 446.911663 
" style="fill:none;stroke:#b0b0b0;stroke-linecap:square;stroke-width:0.8;"/>
     </g>
     <g id="line2d_14">
      <g>
       <use style="stroke:#000000;stroke-width:0.8;" x="121.5" xlink:href="#m6f40cf154e" y="446.911663"/>
      </g>
     </g>
     <g id="text_7">
      <!-- 1 -->
      <g transform="translate(108.1375 450.710882)scale(0.1 -0.1)">
       <defs>
        <path d="M 12.40625 8.296875 
L 28.515625 8.296875 
L 28.515625 63.921875 
L 10.984375 60.40625 
L 10.984375 69.390625 
L 28.421875 72.90625 
L 38.28125 72.90625 
L 38.28125 8.296875 
L 54.390625 8.296875 
L 54.390625 0 
L 12.40625 0 
z
" id="DejaVuSans-49"/>
       </defs>
       <use xlink:href="#DejaVuSans-49"/>
      </g>
     </g>
    </g>
    <g id="ytick_3">
     <g id="line2d_15">
      <path clip-path="url(#pd43d118f4f)" d="M 121.5 393.899542 
L 874.8 393.899542 
" style="fill:none;stroke:#b0b0b0;stroke-linecap:square;stroke-width:0.8;"/>
     </g>
     <g id="line2d_16">
      <g>
       <use style="stroke:#000000;stroke-width:0.8;" x="121.5" xlink:href="#m6f40cf154e" y="393.899542"/>
      </g>
     </g>
     <g id="text_8">
      <!-- 2 -->
      <g transform="translate(108.1375 397.698761)scale(0.1 -0.1)">
       <use xlink:href="#DejaVuSans-50"/>
      </g>
     </g>
    </g>
    <g id="ytick_4">
     <g id="line2d_17">
      <path clip-path="url(#pd43d118f4f)" d="M 121.5 340.887422 
L 874.8 340.887422 
" style="fill:none;stroke:#b0b0b0;stroke-linecap:square;stroke-width:0.8;"/>
     </g>
     <g id="line2d_18">
      <g>
       <use style="stroke:#000000;stroke-width:0.8;" x="121.5" xlink:href="#m6f40cf154e" y="340.887422"/>
      </g>
     </g>
     <g id="text_9">
      <!-- 3 -->
      <g transform="translate(108.1375 344.686641)scale(0.1 -0.1)">
       <defs>
        <path d="M 40.578125 39.3125 
Q 47.65625 37.796875 51.625 33 
Q 55.609375 28.21875 55.609375 21.1875 
Q 55.609375 10.40625 48.1875 4.484375 
Q 40.765625 -1.421875 27.09375 -1.421875 
Q 22.515625 -1.421875 17.65625 -0.515625 
Q 12.796875 0.390625 7.625 2.203125 
L 7.625 11.71875 
Q 11.71875 9.328125 16.59375 8.109375 
Q 21.484375 6.890625 26.8125 6.890625 
Q 36.078125 6.890625 40.9375 10.546875 
Q 45.796875 14.203125 45.796875 21.1875 
Q 45.796875 27.640625 41.28125 31.265625 
Q 36.765625 34.90625 28.71875 34.90625 
L 20.21875 34.90625 
L 20.21875 43.015625 
L 29.109375 43.015625 
Q 36.375 43.015625 40.234375 45.921875 
Q 44.09375 48.828125 44.09375 54.296875 
Q 44.09375 59.90625 40.109375 62.90625 
Q 36.140625 65.921875 28.71875 65.921875 
Q 24.65625 65.921875 20.015625 65.03125 
Q 15.375 64.15625 9.8125 62.3125 
L 9.8125 71.09375 
Q 15.4375 72.65625 20.34375 73.4375 
Q 25.25 74.21875 29.59375 74.21875 
Q 40.828125 74.21875 47.359375 69.109375 
Q 53.90625 64.015625 53.90625 55.328125 
Q 53.90625 49.265625 50.4375 45.09375 
Q 46.96875 40.921875 40.578125 39.3125 
z
" id="DejaVuSans-51"/>
       </defs>
       <use xlink:href="#DejaVuSans-51"/>
      </g>
     </g>
    </g>
    <g id="ytick_5">
     <g id="line2d_19">
      <path clip-path="url(#pd43d118f4f)" d="M 121.5 287.875301 
L 874.8 287.875301 
" style="fill:none;stroke:#b0b0b0;stroke-linecap:square;stroke-width:0.8;"/>
     </g>
     <g id="line2d_20">
      <g>
       <use style="stroke:#000000;stroke-width:0.8;" x="121.5" xlink:href="#m6f40cf154e" y="287.875301"/>
      </g>
     </g>
     <g id="text_10">
      <!-- 4 -->
      <g transform="translate(108.1375 291.67452)scale(0.1 -0.1)">
       <use xlink:href="#DejaVuSans-52"/>
      </g>
     </g>
    </g>
    <g id="ytick_6">
     <g id="line2d_21">
      <path clip-path="url(#pd43d118f4f)" d="M 121.5 234.863181 
L 874.8 234.863181 
" style="fill:none;stroke:#b0b0b0;stroke-linecap:square;stroke-width:0.8;"/>
     </g>
     <g id="line2d_22">
      <g>
       <use style="stroke:#000000;stroke-width:0.8;" x="121.5" xlink:href="#m6f40cf154e" y="234.863181"/>
      </g>
     </g>
     <g id="text_11">
      <!-- 5 -->
      <g transform="translate(108.1375 238.6624)scale(0.1 -0.1)">
       <defs>
        <path d="M 10.796875 72.90625 
L 49.515625 72.90625 
L 49.515625 64.59375 
L 19.828125 64.59375 
L 19.828125 46.734375 
Q 21.96875 47.46875 24.109375 47.828125 
Q 26.265625 48.1875 28.421875 48.1875 
Q 40.625 48.1875 47.75 41.5 
Q 54.890625 34.8125 54.890625 23.390625 
Q 54.890625 11.625 47.5625 5.09375 
Q 40.234375 -1.421875 26.90625 -1.421875 
Q 22.3125 -1.421875 17.546875 -0.640625 
Q 12.796875 0.140625 7.71875 1.703125 
L 7.71875 11.625 
Q 12.109375 9.234375 16.796875 8.0625 
Q 21.484375 6.890625 26.703125 6.890625 
Q 35.15625 6.890625 40.078125 11.328125 
Q 45.015625 15.765625 45.015625 23.390625 
Q 45.015625 31 40.078125 35.4375 
Q 35.15625 39.890625 26.703125 39.890625 
Q 22.75 39.890625 18.8125 39.015625 
Q 14.890625 38.140625 10.796875 36.28125 
z
" id="DejaVuSans-53"/>
       </defs>
       <use xlink:href="#DejaVuSans-53"/>
      </g>
     </g>
    </g>
    <g id="ytick_7">
     <g id="line2d_23">
      <path clip-path="url(#pd43d118f4f)" d="M 121.5 181.851061 
L 874.8 181.851061 
" style="fill:none;stroke:#b0b0b0;stroke-linecap:square;stroke-width:0.8;"/>
     </g>
     <g id="line2d_24">
      <g>
       <use style="stroke:#000000;stroke-width:0.8;" x="121.5" xlink:href="#m6f40cf154e" y="181.851061"/>
      </g>
     </g>
     <g id="text_12">
      <!-- 6 -->
      <g transform="translate(108.1375 185.650279)scale(0.1 -0.1)">
       <use xlink:href="#DejaVuSans-54"/>
      </g>
     </g>
    </g>
    <g id="ytick_8">
     <g id="line2d_25">
      <path clip-path="url(#pd43d118f4f)" d="M 121.5 128.83894 
L 874.8 128.83894 
" style="fill:none;stroke:#b0b0b0;stroke-linecap:square;stroke-width:0.8;"/>
     </g>
     <g id="line2d_26">
      <g>
       <use style="stroke:#000000;stroke-width:0.8;" x="121.5" xlink:href="#m6f40cf154e" y="128.83894"/>
      </g>
     </g>
     <g id="text_13">
      <!-- 7 -->
      <g transform="translate(108.1375 132.638159)scale(0.1 -0.1)">
       <defs>
        <path d="M 8.203125 72.90625 
L 55.078125 72.90625 
L 55.078125 68.703125 
L 28.609375 0 
L 18.3125 0 
L 43.21875 64.59375 
L 8.203125 64.59375 
z
" id="DejaVuSans-55"/>
       </defs>
       <use xlink:href="#DejaVuSans-55"/>
      </g>
     </g>
    </g>
    <g id="ytick_9">
     <g id="line2d_27">
      <path clip-path="url(#pd43d118f4f)" d="M 121.5 75.82682 
L 874.8 75.82682 
" style="fill:none;stroke:#b0b0b0;stroke-linecap:square;stroke-width:0.8;"/>
     </g>
     <g id="line2d_28">
      <g>
       <use style="stroke:#000000;stroke-width:0.8;" x="121.5" xlink:href="#m6f40cf154e" y="75.82682"/>
      </g>
     </g>
     <g id="text_14">
      <!-- 8 -->
      <g transform="translate(108.1375 79.626039)scale(0.1 -0.1)">
       <use xlink:href="#DejaVuSans-56"/>
      </g>
     </g>
    </g>
   </g>
   <g id="line2d_29">
    <path clip-path="url(#pd43d118f4f)" d="M 155.740909 502.350485 
L 156.06748 499.923783 
L 156.39405 501.541585 
L 156.72062 504.777188 
L 157.373761 499.114882 
L 157.700332 501.541585 
L 158.026902 498.305982 
L 158.353472 506.394989 
L 158.680043 504.777188 
L 159.006613 504.777188 
L 159.333184 506.394989 
L 159.986325 498.305982 
L 160.312895 496.68818 
L 160.639465 487.790272 
L 160.966036 489.408073 
L 161.292606 493.452577 
L 161.619177 490.216974 
L 161.945747 493.452577 
L 162.272318 489.408073 
L 162.598888 496.68818 
L 162.925458 512.057295 
L 163.252029 499.114882 
L 163.578599 500.732684 
L 163.90517 495.879279 
L 164.23174 494.261478 
L 164.558311 505.586089 
L 165.211451 517.7196 
L 165.538022 512.866195 
L 165.864592 510.439493 
L 166.191163 505.586089 
L 166.517733 509.630592 
L 166.844304 509.630592 
L 167.170874 496.68818 
L 167.497444 490.216974 
L 167.824015 491.834776 
L 168.150585 482.936867 
L 168.477156 491.025875 
L 168.803726 488.599173 
L 169.130297 484.554669 
L 169.456867 474.84786 
L 169.783437 469.185554 
L 170.110008 466.758852 
L 170.436578 471.612256 
L 170.763149 470.803356 
L 171.089719 468.376653 
L 171.41629 464.33215 
L 171.74286 448.154134 
L 172.06943 444.109631 
L 172.396001 436.829524 
L 172.722571 442.491829 
L 173.049142 438.447325 
L 173.375712 431.167218 
L 173.702282 439.256226 
L 174.028853 436.829524 
L 174.355423 439.256226 
L 174.681994 435.211722 
L 175.008564 437.638424 
L 175.335135 421.460409 
L 175.661705 426.313814 
L 176.641416 406.900195 
L 176.967987 409.326898 
L 177.294557 399.620089 
L 177.947698 423.887111 
L 178.274268 417.415905 
L 178.600839 403.664592 
L 178.927409 401.23789 
L 179.25398 394.766684 
L 179.58055 385.059875 
L 179.907121 399.620089 
L 180.233691 406.091295 
L 180.560261 419.842608 
L 180.886832 412.562501 
L 181.213402 401.23789 
L 181.866543 414.989203 
L 182.193114 409.326898 
L 182.519684 411.7536 
L 182.846254 402.855692 
L 183.172825 404.473493 
L 183.499395 395.575585 
L 184.152536 406.900195 
L 184.479107 406.900195 
L 184.805677 415.798104 
L 185.132247 398.811188 
L 185.458818 408.517997 
L 185.785388 387.486577 
L 186.111959 392.339982 
L 186.438529 389.913279 
L 186.765099 406.900195 
L 187.09167 404.473493 
L 187.41824 400.428989 
L 187.744811 386.677676 
L 188.071381 362.410653 
L 188.397952 367.264058 
L 188.724522 384.250974 
L 189.051092 393.148882 
L 189.377663 381.824272 
L 189.704233 394.766684 
L 190.357374 408.517997 
L 190.683945 410.135798 
L 191.010515 414.180302 
L 191.337085 415.798104 
L 191.663656 414.989203 
L 191.990226 418.224806 
L 192.316797 395.575585 
L 192.643367 382.633173 
L 192.969938 385.868776 
L 193.296508 371.308562 
L 193.623078 363.219554 
L 193.949649 362.410653 
L 194.276219 359.17505 
L 194.60279 336.525829 
L 194.92936 332.481325 
L 195.255931 317.921111 
L 195.582501 326.010119 
L 195.909071 313.067707 
L 196.235642 315.494409 
L 196.562212 325.201218 
L 196.888783 315.494409 
L 197.215353 314.685508 
L 197.541924 308.214302 
L 197.868494 311.449905 
L 198.195064 310.641005 
L 198.521635 289.609585 
L 198.848205 290.418485 
L 199.501346 279.093875 
L 199.827917 300.934195 
L 200.154487 294.462989 
L 200.481057 260.489157 
L 201.134198 299.316394 
L 201.460769 309.832104 
L 201.787339 279.093875 
L 202.113909 276.667173 
L 202.44048 281.520577 
L 202.76705 282.329478 
L 203.093621 280.711676 
L 203.420191 290.418485 
L 203.746762 280.711676 
L 204.073332 264.533661 
L 204.399902 261.298058 
L 204.726473 228.942027 
L 205.053043 249.164547 
L 205.379614 293.654089 
L 206.032755 249.164547 
L 206.359325 235.413234 
L 206.685895 262.106959 
L 207.012466 262.91586 
L 207.339036 290.418485 
L 207.665607 293.654089 
L 207.992177 279.093875 
L 208.318748 281.520577 
L 208.645318 285.565081 
L 208.971888 320.347814 
L 209.298459 341.379234 
L 209.625029 426.313814 
L 209.9516 432.78502 
L 210.27817 415.798104 
L 210.604741 420.651508 
L 210.931311 419.033707 
L 211.257881 401.23789 
L 211.584452 392.339982 
L 211.911022 360.792852 
L 212.237593 364.028455 
L 212.564163 351.086043 
L 212.890734 360.792852 
L 213.217304 352.703844 
L 213.870445 309.023203 
L 214.197015 309.832104 
L 214.523586 287.991783 
L 214.850156 303.360898 
L 215.176726 313.067707 
L 215.503297 335.716928 
L 215.829867 304.978699 
L 216.156438 299.316394 
L 216.809579 253.20905 
L 217.136149 270.195966 
L 217.462719 258.871356 
L 217.78929 263.72476 
L 218.11586 232.177631 
L 218.442431 273.431569 
L 218.769001 238.648837 
L 219.095572 279.093875 
L 219.422142 281.520577 
L 219.748712 274.24047 
L 220.075283 292.036287 
L 221.054994 245.120043 
L 221.381565 258.062455 
L 222.034705 249.973447 
L 222.361276 237.031035 
L 222.687846 238.648837 
L 223.014417 241.88444 
L 223.340987 190.923692 
L 223.667558 232.177631 
L 223.994128 222.470821 
L 224.320698 206.292806 
L 224.647269 245.120043 
L 224.973839 241.075539 
L 225.30041 254.826852 
L 225.62698 253.20905 
L 225.953551 273.431569 
L 226.280121 254.017951 
L 226.606691 250.782348 
L 227.586403 232.986531 
L 228.239544 196.585997 
L 228.566114 205.483905 
L 228.892684 205.483905 
L 229.219255 213.572913 
L 229.545825 238.648837 
L 229.872396 221.661921 
L 230.198966 228.133127 
L 230.525536 202.248302 
L 230.852107 249.164547 
L 231.178677 212.764012 
L 231.505248 238.648837 
L 231.831818 215.999615 
L 232.158389 234.604333 
L 232.484959 232.177631 
L 232.811529 276.667173 
L 233.1381 223.279722 
L 233.46467 261.298058 
L 233.791241 235.413234 
L 234.117811 232.986531 
L 234.444382 224.897524 
L 234.770952 225.706424 
L 235.097522 241.88444 
L 235.424093 229.750928 
L 235.750663 267.769264 
L 236.077234 219.235218 
L 236.403804 278.284974 
L 236.730375 224.088623 
L 237.056945 266.151463 
L 237.383515 252.40015 
L 237.710086 207.910608 
L 238.036656 231.36873 
L 238.363227 225.706424 
L 238.689797 252.40015 
L 239.016368 193.350394 
L 239.342938 237.031035 
L 239.669508 208.719508 
L 239.996079 215.999615 
L 240.322649 207.101707 
L 240.64922 229.750928 
L 240.97579 231.36873 
L 241.302361 224.897524 
L 241.628931 241.075539 
L 241.955501 228.942027 
L 242.282072 234.604333 
L 242.608642 215.190715 
L 242.935213 259.680256 
L 243.261783 238.648837 
L 243.588353 249.973447 
L 243.914924 237.031035 
L 244.241494 256.444653 
L 244.568065 241.075539 
L 244.894635 239.457737 
L 245.221206 270.195966 
L 245.547776 230.559829 
L 245.874346 241.075539 
L 246.200917 235.413234 
L 246.527487 252.40015 
L 246.854058 201.439402 
L 247.180628 253.20905 
L 247.507199 234.604333 
L 247.833769 223.279722 
L 248.48691 236.222134 
L 248.81348 208.719508 
L 249.140051 206.292806 
L 249.466621 259.680256 
L 249.793192 237.031035 
L 250.119762 241.075539 
L 250.446332 213.572913 
L 250.772903 209.528409 
L 251.099473 240.266638 
L 251.426044 199.012699 
L 251.752614 244.311142 
L 252.079185 198.203798 
L 252.405755 190.923692 
L 252.732325 225.706424 
L 253.058896 216.808516 
L 253.385466 235.413234 
L 253.712037 237.839936 
L 254.038607 241.88444 
L 254.365178 276.667173 
L 254.691748 252.40015 
L 255.018318 249.973447 
L 255.344889 264.533661 
L 255.671459 262.106959 
L 255.99803 218.426318 
L 256.3246 265.342562 
L 256.651171 224.897524 
L 256.977741 254.017951 
L 257.630882 224.897524 
L 257.957452 262.91586 
L 258.284023 232.177631 
L 258.610593 249.973447 
L 258.937163 254.826852 
L 259.263734 237.839936 
L 259.590304 239.457737 
L 260.243445 222.470821 
L 260.570016 260.489157 
L 260.896586 228.942027 
L 261.223156 233.795432 
L 261.549727 255.635753 
L 261.876297 231.36873 
L 262.202868 230.559829 
L 262.529438 251.591249 
L 263.182579 194.159295 
L 263.509149 266.960363 
L 264.16229 234.604333 
L 264.488861 260.489157 
L 264.815431 261.298058 
L 265.142002 244.311142 
L 265.468572 209.528409 
L 265.795142 254.826852 
L 266.121713 245.120043 
L 266.448283 215.190715 
L 266.774854 257.253554 
L 267.101424 228.942027 
L 267.427995 184.452485 
L 267.754565 232.986531 
L 268.081135 254.826852 
L 268.734276 224.088623 
L 269.060847 256.444653 
L 269.387417 261.298058 
L 269.713988 203.866104 
L 270.040558 187.688089 
L 270.367128 257.253554 
L 271.020269 203.866104 
L 271.34684 188.496989 
L 271.67341 262.91586 
L 272.326551 198.203798 
L 272.653121 215.999615 
L 272.979692 247.546745 
L 273.306262 220.044119 
L 273.632833 220.044119 
L 273.959403 235.413234 
L 274.285973 236.222134 
L 274.612544 205.483905 
L 274.939114 255.635753 
L 275.265685 258.871356 
L 275.592255 228.942027 
L 275.918826 227.324226 
L 276.245396 226.515325 
L 276.571966 215.190715 
L 276.898537 262.91586 
L 277.225107 243.502241 
L 277.551678 201.439402 
L 277.878248 240.266638 
L 278.204819 249.164547 
L 278.531389 231.36873 
L 279.18453 186.879188 
L 279.5111 203.057203 
L 279.837671 200.630501 
L 280.164241 235.413234 
L 280.490812 245.928944 
L 280.817382 248.355646 
L 281.143952 236.222134 
L 281.470523 208.719508 
L 281.797093 222.470821 
L 282.123664 228.133127 
L 282.776805 261.298058 
L 283.103375 240.266638 
L 283.429945 236.222134 
L 283.756516 207.101707 
L 284.083086 220.044119 
L 284.409657 243.502241 
L 284.736227 93.8556 
L 285.062798 276.667173 
L 285.389368 258.062455 
L 285.715938 264.533661 
L 286.042509 281.520577 
L 286.369079 273.431569 
L 286.69565 278.284974 
L 287.02222 268.578165 
L 287.34879 279.093875 
L 287.675361 279.093875 
L 288.328502 232.177631 
L 288.655072 228.942027 
L 288.981643 186.879188 
L 289.634783 237.839936 
L 289.961354 234.604333 
L 290.287924 229.750928 
L 290.614495 208.719508 
L 290.941065 201.439402 
L 291.594206 193.350394 
L 292.247347 243.502241 
L 292.900488 228.942027 
L 293.227058 207.101707 
L 293.553629 217.617417 
L 293.880199 204.675005 
L 294.206769 206.292806 
L 294.53334 213.572913 
L 294.85991 211.146211 
L 295.186481 196.585997 
L 295.513051 205.483905 
L 295.839622 203.866104 
L 296.166192 224.088623 
L 296.492762 223.279722 
L 296.819333 233.795432 
L 297.145903 201.439402 
L 297.799044 231.36873 
L 298.125615 218.426318 
L 298.452185 238.648837 
L 298.778755 242.69334 
L 299.105326 268.578165 
L 299.431896 262.106959 
L 299.758467 252.40015 
L 300.411607 248.355646 
L 300.738178 237.031035 
L 301.064748 235.413234 
L 301.391319 231.36873 
L 301.717889 254.017951 
L 302.04446 254.017951 
L 302.37103 271.004867 
L 302.6976 248.355646 
L 303.350741 234.604333 
L 303.677312 233.795432 
L 304.003882 228.133127 
L 304.330453 220.044119 
L 304.657023 228.133127 
L 304.983593 243.502241 
L 305.310164 232.177631 
L 305.636734 254.017951 
L 305.963305 248.355646 
L 306.616446 244.311142 
L 306.943016 236.222134 
L 307.269586 215.190715 
L 307.596157 211.146211 
L 307.922727 209.528409 
L 308.249298 231.36873 
L 308.575868 218.426318 
L 308.902439 242.69334 
L 309.229009 224.897524 
L 309.88215 207.101707 
L 310.20872 225.706424 
L 310.535291 224.088623 
L 310.861861 215.190715 
L 311.188432 195.777096 
L 311.515002 205.483905 
L 311.841572 197.394898 
L 312.168143 207.101707 
L 312.494713 199.012699 
L 312.821284 194.159295 
L 313.147854 231.36873 
L 313.474425 228.133127 
L 313.800995 245.120043 
L 314.127565 231.36873 
L 314.454136 233.795432 
L 314.780706 249.164547 
L 315.107277 246.737844 
L 315.433847 228.942027 
L 315.760417 230.559829 
L 316.086988 228.942027 
L 316.413558 198.203798 
L 316.740129 208.719508 
L 317.066699 244.311142 
L 317.39327 221.661921 
L 317.71984 223.279722 
L 318.04641 223.279722 
L 318.699551 221.661921 
L 319.026122 223.279722 
L 319.352692 223.279722 
L 319.679263 202.248302 
L 320.005833 209.528409 
L 320.332403 233.795432 
L 320.658974 242.69334 
L 320.985544 224.088623 
L 321.312115 238.648837 
L 321.638685 217.617417 
L 321.965256 237.031035 
L 322.291826 221.661921 
L 322.618396 217.617417 
L 322.944967 182.025783 
L 323.271537 187.688089 
L 323.598108 189.30589 
L 323.924678 232.177631 
L 324.251249 223.279722 
L 324.577819 230.559829 
L 324.904389 257.253554 
L 325.23096 245.120043 
L 325.55753 248.355646 
L 326.537242 204.675005 
L 326.863812 202.248302 
L 327.190382 226.515325 
L 327.516953 237.839936 
L 328.170094 178.79018 
L 328.496664 181.216882 
L 328.823234 207.910608 
L 329.149805 216.808516 
L 329.476375 236.222134 
L 329.802946 241.075539 
L 330.129516 186.070287 
L 330.456087 194.159295 
L 331.109227 259.680256 
L 331.435798 247.546745 
L 331.762368 255.635753 
L 332.088939 252.40015 
L 332.415509 222.470821 
L 332.74208 223.279722 
L 333.39522 230.559829 
L 333.721791 233.795432 
L 334.048361 231.36873 
L 334.374932 222.470821 
L 334.701502 196.585997 
L 335.028073 193.350394 
L 335.354643 181.216882 
L 335.681213 203.866104 
L 336.334354 230.559829 
L 336.660925 232.177631 
L 336.987495 232.177631 
L 337.314066 189.30589 
L 337.640636 189.30589 
L 337.967206 216.808516 
L 338.293777 212.764012 
L 338.620347 237.839936 
L 338.946918 243.502241 
L 339.273488 232.986531 
L 339.600059 259.680256 
L 339.926629 270.195966 
L 340.253199 258.062455 
L 340.57977 261.298058 
L 340.90634 262.106959 
L 341.886052 194.159295 
L 342.212622 211.955111 
L 342.865763 205.483905 
L 343.192333 207.910608 
L 343.845474 242.69334 
L 344.172044 212.764012 
L 344.498615 206.292806 
L 344.825185 211.955111 
L 345.151756 193.350394 
L 345.478326 216.808516 
L 345.804897 220.044119 
L 346.131467 241.88444 
L 346.458037 249.164547 
L 347.437749 207.910608 
L 348.09089 228.942027 
L 348.41746 264.533661 
L 348.74403 207.101707 
L 349.070601 218.426318 
L 349.397171 214.381814 
L 349.723742 220.037648 
L 350.050312 239.457737 
L 350.703453 192.852111 
L 351.030023 192.541493 
L 351.356594 218.426318 
L 351.683164 222.160203 
L 352.009735 245.928944 
L 352.336305 227.324226 
L 352.662876 223.279722 
L 352.989446 215.999615 
L 353.642587 235.413234 
L 353.969157 241.075539 
L 354.295728 261.298058 
L 354.622298 254.826852 
L 354.948869 260.489157 
L 355.275439 258.871356 
L 355.602009 254.826852 
L 355.92858 252.40015 
L 356.25515 237.839936 
L 356.581721 241.075539 
L 357.234861 215.999615 
L 357.561432 228.133127 
L 357.888002 215.190715 
L 358.214573 227.324226 
L 358.541143 216.808516 
L 359.194284 205.483905 
L 359.520854 201.439402 
L 359.847425 207.101707 
L 360.173995 217.617417 
L 361.153707 183.643585 
L 361.480277 201.439402 
L 361.806847 192.541493 
L 362.133418 178.79018 
L 362.459988 195.777096 
L 362.786559 195.777096 
L 363.113129 209.528409 
L 363.4397 202.248302 
L 364.09284 230.559829 
L 364.419411 233.795432 
L 364.745981 213.572913 
L 365.072552 216.808516 
L 365.399122 218.426318 
L 365.725693 237.839936 
L 366.052263 243.502241 
L 366.378833 238.648837 
L 367.031974 220.85302 
L 368.011686 269.387066 
L 368.338256 232.177631 
L 368.664826 209.528409 
L 368.991397 177.172379 
L 369.317967 188.496989 
L 369.644538 218.426318 
L 369.971108 212.764012 
L 370.624249 228.133127 
L 370.950819 249.973447 
L 371.27739 259.680256 
L 371.60396 238.648837 
L 371.930531 244.311142 
L 372.257101 228.133127 
L 372.910242 220.85302 
L 373.236812 178.79018 
L 373.563383 196.585997 
L 373.889953 206.292806 
L 374.216524 207.101707 
L 374.543094 216.808516 
L 374.869664 267.769264 
L 375.196235 262.91586 
L 375.522805 246.737844 
L 375.849376 249.973447 
L 376.175946 210.33731 
L 376.829087 222.470821 
L 377.155657 206.292806 
L 377.482228 205.483905 
L 377.808798 201.439402 
L 378.135369 214.381814 
L 378.461939 218.426318 
L 378.78851 199.8216 
L 379.11508 211.955111 
L 379.44165 219.235218 
L 379.768221 212.764012 
L 380.094791 211.146211 
L 380.421362 211.146211 
L 380.747932 187.688089 
L 381.074503 194.968195 
L 381.401073 217.617417 
L 381.727643 211.955111 
L 382.054214 249.164547 
L 382.380784 240.266638 
L 382.707355 237.031035 
L 383.033925 226.515325 
L 383.360496 210.33731 
L 383.687066 213.572913 
L 384.013636 211.146211 
L 384.340207 205.483905 
L 384.666777 197.394898 
L 384.993348 204.675005 
L 385.319918 208.719508 
L 385.973059 251.591249 
L 386.299629 224.897524 
L 386.6262 215.190715 
L 386.95277 214.381814 
L 387.279341 217.617417 
L 387.605911 241.88444 
L 388.259052 225.706424 
L 388.585622 221.661921 
L 388.912193 233.795432 
L 389.238763 210.33731 
L 389.565334 238.648837 
L 389.891904 226.515325 
L 390.218474 245.120043 
L 390.545045 256.444653 
L 390.871615 255.635753 
L 391.198186 251.591249 
L 391.524756 245.928944 
L 392.177897 209.528409 
L 392.504467 204.675005 
L 392.831038 212.764012 
L 393.157608 215.190715 
L 393.484179 206.292806 
L 393.810749 210.33731 
L 394.13732 237.839936 
L 394.46389 229.750928 
L 394.79046 230.559829 
L 395.117031 221.661921 
L 395.443601 230.559829 
L 395.770172 236.222134 
L 396.096742 233.795432 
L 396.423313 207.910608 
L 396.749883 212.764012 
L 397.076453 213.572913 
L 397.403024 195.777096 
L 397.729594 193.350394 
L 398.056165 204.675005 
L 398.382735 206.292806 
L 398.709306 212.764012 
L 399.035876 200.630501 
L 399.362446 208.719508 
L 399.689017 206.292806 
L 400.015587 206.292806 
L 400.342158 205.483905 
L 400.668728 210.33731 
L 401.321869 236.222134 
L 401.648439 225.706424 
L 401.97501 221.661921 
L 402.30158 198.203798 
L 402.628151 224.088623 
L 403.281291 211.146211 
L 403.607862 219.235218 
L 403.934432 203.057203 
L 404.261003 224.088623 
L 404.587573 227.324226 
L 404.914144 217.617417 
L 405.240714 230.559829 
L 405.893855 206.292806 
L 406.220425 224.088623 
L 406.546996 215.999615 
L 406.873566 229.750928 
L 407.200137 252.40015 
L 407.526707 252.40015 
L 407.853277 256.444653 
L 408.179848 232.986531 
L 408.506418 257.253554 
L 408.832989 261.298058 
L 409.159559 254.826852 
L 409.8127 233.795432 
L 410.13927 245.928944 
L 410.465841 249.164547 
L 410.792411 226.515325 
L 411.118982 216.808516 
L 411.445552 220.044119 
L 411.772123 212.764012 
L 412.098693 225.706424 
L 412.425263 224.897524 
L 412.751834 213.572913 
L 413.078404 209.528409 
L 413.404975 225.706424 
L 413.731545 198.203798 
L 414.058115 207.910608 
L 414.384686 204.675005 
L 414.711256 220.85302 
L 415.037827 216.808516 
L 415.364397 220.044119 
L 415.690968 236.222134 
L 416.017538 235.413234 
L 416.344108 264.533661 
L 416.670679 250.782348 
L 416.997249 232.177631 
L 417.32382 237.839936 
L 417.65039 223.279722 
L 417.976961 224.088623 
L 418.303531 215.999615 
L 418.630101 197.394898 
L 418.956672 197.394898 
L 419.283242 193.350394 
L 419.609813 215.999615 
L 419.936383 224.088623 
L 420.262954 207.910608 
L 420.589524 208.719508 
L 420.916094 195.777096 
L 421.242665 220.85302 
L 421.569235 219.235218 
L 421.895806 220.044119 
L 422.222376 228.133127 
L 422.548947 229.750928 
L 422.875517 233.795432 
L 423.202087 235.413234 
L 423.528658 244.311142 
L 423.855228 230.559829 
L 424.181799 221.661921 
L 424.508369 215.999615 
L 424.83494 221.661921 
L 425.16151 220.044119 
L 425.48808 237.031035 
L 425.814651 240.266638 
L 426.141221 230.559829 
L 426.467792 261.298058 
L 426.794362 258.062455 
L 427.774073 204.675005 
L 428.100644 204.675005 
L 428.427214 188.496989 
L 428.753785 202.248302 
L 429.080355 205.483905 
L 429.406925 203.057203 
L 429.733496 194.968195 
L 430.060066 194.159295 
L 430.386637 201.439402 
L 430.713207 188.496989 
L 431.692918 232.177631 
L 432.019489 242.69334 
L 432.67263 224.088623 
L 432.9992 202.248302 
L 433.325771 197.394898 
L 433.652341 188.496989 
L 434.305482 220.85302 
L 434.632052 220.85302 
L 434.958623 232.986531 
L 435.285193 234.604333 
L 435.611764 245.120043 
L 435.938334 241.88444 
L 436.264904 246.737844 
L 436.591475 246.737844 
L 436.918045 224.897524 
L 437.244616 215.190715 
L 437.571186 211.146211 
L 437.897757 213.572913 
L 438.224327 250.782348 
L 438.550897 243.502241 
L 438.877468 215.999615 
L 439.204038 228.942027 
L 439.530609 217.617417 
L 439.857179 190.114791 
L 440.18375 190.114791 
L 440.51032 186.879188 
L 440.83689 192.541493 
L 441.163461 192.541493 
L 441.490031 211.146211 
L 441.816602 236.222134 
L 442.143172 211.955111 
L 442.469742 220.85302 
L 442.796313 207.101707 
L 443.122883 242.69334 
L 443.449454 255.635753 
L 443.776024 245.120043 
L 444.102595 254.826852 
L 444.429165 232.986531 
L 444.755735 258.871356 
L 445.082306 246.737844 
L 445.408876 225.706424 
L 445.735447 211.955111 
L 446.062017 239.457737 
L 446.388588 241.075539 
L 446.715158 227.324226 
L 447.041728 179.599081 
L 447.368299 190.114791 
L 447.694869 191.732592 
L 448.02144 240.266638 
L 448.34801 243.502241 
L 448.674581 242.69334 
L 449.001151 217.617417 
L 449.327721 235.413234 
L 449.654292 227.324226 
L 449.980862 215.190715 
L 450.307433 220.85302 
L 450.634003 231.36873 
L 450.960574 225.706424 
L 451.287144 209.528409 
L 451.613714 235.413234 
L 452.593426 173.127875 
L 452.919996 213.572913 
L 453.246567 215.999615 
L 453.573137 231.36873 
L 453.899707 236.222134 
L 454.226278 222.470821 
L 454.552848 237.839936 
L 454.879419 261.298058 
L 455.205989 213.572913 
L 455.53256 200.630501 
L 455.85913 223.279722 
L 456.1857 224.088623 
L 456.512271 220.85302 
L 456.838841 221.661921 
L 457.165412 231.36873 
L 457.491982 212.764012 
L 457.818552 252.40015 
L 458.145123 236.222134 
L 458.471693 206.292806 
L 458.798264 227.324226 
L 459.124834 234.604333 
L 459.451405 210.33731 
L 459.777975 201.439402 
L 460.104545 224.088623 
L 460.431116 198.203798 
L 460.757686 223.279722 
L 461.084257 212.764012 
L 461.410827 224.088623 
L 461.737398 245.120043 
L 462.063968 239.457737 
L 462.390538 272.622669 
L 462.717109 210.33731 
L 463.37025 237.839936 
L 463.69682 233.795432 
L 464.023391 237.839936 
L 464.349961 213.572913 
L 464.676531 275.858272 
L 465.003102 218.426318 
L 465.329672 215.190715 
L 465.656243 273.431569 
L 465.982813 207.101707 
L 466.309384 259.680256 
L 466.635954 246.737844 
L 466.962524 241.88444 
L 467.289095 245.120043 
L 467.615665 238.648837 
L 467.942236 215.190715 
L 468.268806 275.858272 
L 468.595377 206.292806 
L 468.921947 229.750928 
L 469.248517 238.648837 
L 469.575088 207.910608 
L 469.901658 241.075539 
L 470.228229 180.407982 
L 470.881369 202.248302 
L 471.20794 209.528409 
L 471.53451 202.248302 
L 471.861081 238.648837 
L 472.187651 220.044119 
L 472.514222 215.999615 
L 472.840792 237.031035 
L 473.167362 244.311142 
L 473.820503 190.114791 
L 474.147074 245.120043 
L 474.473644 187.688089 
L 474.800215 183.643585 
L 475.126785 245.928944 
L 475.453355 197.394898 
L 475.779926 190.923692 
L 476.106496 228.133127 
L 476.433067 220.044119 
L 476.759637 239.457737 
L 477.086208 228.942027 
L 477.412778 262.106959 
L 477.739348 270.195966 
L 478.065919 240.266638 
L 478.392489 237.031035 
L 478.71906 232.177631 
L 479.04563 251.591249 
L 479.372201 208.719508 
L 479.698771 240.266638 
L 480.025341 228.133127 
L 480.351912 242.69334 
L 480.678482 241.075539 
L 481.005053 209.528409 
L 481.658194 237.839936 
L 481.984764 233.795432 
L 482.311334 241.075539 
L 482.637905 258.871356 
L 482.964475 211.146211 
L 483.291046 232.177631 
L 483.617616 203.866104 
L 483.944187 228.942027 
L 484.270757 191.732592 
L 484.597327 222.470821 
L 484.923898 227.324226 
L 485.250468 244.311142 
L 485.577039 237.839936 
L 485.903609 225.706424 
L 486.230179 237.839936 
L 486.55675 204.675005 
L 486.88332 217.617417 
L 487.209891 220.044119 
L 487.536461 211.955111 
L 487.863032 219.235218 
L 488.189602 216.808516 
L 488.516172 240.266638 
L 489.495884 219.235218 
L 489.822454 228.942027 
L 490.149025 224.897524 
L 490.475595 227.324226 
L 490.802165 206.292806 
L 491.128736 237.839936 
L 491.455306 227.324226 
L 491.781877 202.248302 
L 492.108447 257.253554 
L 492.435018 234.604333 
L 492.761588 233.795432 
L 493.088158 260.489157 
L 493.741299 215.999615 
L 494.06787 223.279722 
L 494.39444 237.031035 
L 494.721011 194.968195 
L 495.047581 237.031035 
L 495.374151 228.133127 
L 495.700722 262.91586 
L 496.027292 203.866104 
L 496.353863 222.470821 
L 496.680433 232.986531 
L 497.007004 198.203798 
L 497.333574 224.088623 
L 497.660144 223.279722 
L 497.986715 227.324226 
L 498.313285 243.502241 
L 498.639856 267.769264 
L 498.966426 256.444653 
L 499.292996 232.986531 
L 499.619567 235.413234 
L 499.946137 224.897524 
L 500.272708 224.088623 
L 500.599278 237.031035 
L 500.925849 231.36873 
L 501.252419 237.031035 
L 501.578989 215.999615 
L 501.90556 220.85302 
L 502.23213 223.279722 
L 502.558701 217.617417 
L 502.885271 257.253554 
L 503.211842 226.515325 
L 503.538412 215.999615 
L 503.864982 228.942027 
L 504.191553 221.661921 
L 504.518123 224.897524 
L 504.844694 224.088623 
L 505.171264 221.661921 
L 505.497835 226.515325 
L 505.824405 225.706424 
L 506.150975 200.630501 
L 506.477546 242.69334 
L 506.804116 220.85302 
L 507.130687 220.044119 
L 507.457257 216.808516 
L 507.783828 237.031035 
L 508.110398 237.839936 
L 508.436968 229.750928 
L 508.763539 235.413234 
L 509.090109 243.502241 
L 509.41668 254.826852 
L 509.74325 240.266638 
L 510.069821 238.648837 
L 510.396391 245.928944 
L 510.722961 224.897524 
L 511.049532 226.515325 
L 511.702673 245.120043 
L 512.029243 227.324226 
L 512.355813 220.044119 
L 512.682384 219.235218 
L 513.008954 234.604333 
L 513.335525 203.057203 
L 513.988666 238.648837 
L 514.315236 232.986531 
L 514.641806 224.897524 
L 514.968377 223.279722 
L 515.294947 234.604333 
L 515.621518 226.515325 
L 515.948088 224.088623 
L 516.274659 237.031035 
L 516.601229 231.36873 
L 516.927799 245.120043 
L 517.25437 233.795432 
L 517.58094 237.839936 
L 517.907511 234.604333 
L 518.234081 226.515325 
L 518.560652 221.661921 
L 518.887222 211.955111 
L 519.213792 194.968195 
L 519.540363 203.866104 
L 519.866933 219.235218 
L 520.193504 215.999615 
L 520.520074 219.235218 
L 520.846645 228.942027 
L 521.173215 232.986531 
L 521.499785 240.266638 
L 521.826356 234.604333 
L 522.152926 253.20905 
L 522.479497 208.719508 
L 522.806067 259.680256 
L 523.132638 244.311142 
L 523.459208 250.782348 
L 523.785778 234.604333 
L 524.112349 266.151463 
L 524.438919 241.075539 
L 524.76549 239.457737 
L 525.09206 253.20905 
L 525.418631 254.017951 
L 525.745201 214.381814 
L 526.071771 249.973447 
L 526.398342 260.489157 
L 526.724912 205.483905 
L 527.051483 274.24047 
L 527.378053 210.33731 
L 527.704623 231.36873 
L 528.031194 225.706424 
L 528.357764 225.706424 
L 528.684335 220.044119 
L 529.010905 245.120043 
L 529.337476 201.439402 
L 529.664046 232.177631 
L 529.990616 247.546745 
L 530.317187 221.661921 
L 530.643757 240.266638 
L 530.970328 226.515325 
L 531.296898 254.826852 
L 531.623469 233.795432 
L 531.950039 237.839936 
L 532.276609 225.706424 
L 532.60318 237.031035 
L 532.92975 219.235218 
L 533.256321 234.604333 
L 533.582891 231.36873 
L 533.909462 255.635753 
L 534.236032 234.604333 
L 534.562602 258.062455 
L 534.889173 228.942027 
L 535.215743 224.897524 
L 535.542314 229.750928 
L 535.868884 244.311142 
L 536.522025 229.750928 
L 536.848595 241.88444 
L 537.175166 244.311142 
L 537.501736 229.750928 
L 537.828307 237.839936 
L 538.154877 222.470821 
L 538.481448 236.222134 
L 538.808018 270.195966 
L 539.134588 228.942027 
L 539.461159 204.675005 
L 539.787729 231.36873 
L 540.1143 213.572913 
L 540.44087 227.324226 
L 540.76744 235.413234 
L 541.094011 233.795432 
L 541.420581 221.661921 
L 541.747152 243.502241 
L 542.073722 237.031035 
L 542.400293 251.591249 
L 542.726863 249.973447 
L 543.053433 242.69334 
L 543.380004 228.133127 
L 544.033145 241.88444 
L 544.359715 245.928944 
L 544.686286 245.120043 
L 545.012856 228.942027 
L 545.339426 222.470821 
L 545.665997 236.222134 
L 545.992567 207.910608 
L 546.319138 256.444653 
L 546.645708 231.36873 
L 546.972279 229.750928 
L 547.298849 251.591249 
L 547.625419 262.106959 
L 547.95199 227.324226 
L 548.27856 236.222134 
L 548.605131 236.222134 
L 548.931701 241.075539 
L 549.258272 237.031035 
L 549.584842 254.826852 
L 549.911412 220.85302 
L 550.237983 238.648837 
L 550.564553 209.528409 
L 550.891124 247.546745 
L 551.217694 223.279722 
L 551.544265 262.106959 
L 551.870835 234.604333 
L 552.197405 237.031035 
L 552.523976 192.541493 
L 552.850546 229.750928 
L 553.177117 214.381814 
L 553.503687 208.719508 
L 553.830258 220.85302 
L 554.156828 204.675005 
L 554.483398 220.044119 
L 554.809969 202.248302 
L 555.136539 239.457737 
L 555.46311 227.324226 
L 555.78968 233.795432 
L 556.11625 254.826852 
L 556.442821 228.942027 
L 556.769391 254.826852 
L 557.095962 235.413234 
L 557.422532 234.604333 
L 557.749103 237.031035 
L 558.075673 247.546745 
L 558.402243 209.528409 
L 558.728814 218.426318 
L 559.055384 234.604333 
L 559.381955 237.839936 
L 559.708525 198.203798 
L 560.035096 257.253554 
L 560.361666 221.661921 
L 560.688236 205.483905 
L 561.014807 243.502241 
L 561.341377 233.795432 
L 561.667948 233.795432 
L 561.994518 244.311142 
L 562.321089 223.279722 
L 562.974229 257.253554 
L 563.3008 228.133127 
L 563.62737 232.986531 
L 563.953941 250.782348 
L 564.280511 210.33731 
L 564.607082 231.36873 
L 564.933652 207.910608 
L 565.260222 166.656669 
L 565.586793 211.955111 
L 565.913363 206.292806 
L 566.566504 229.750928 
L 566.893075 225.706424 
L 567.219645 237.031035 
L 568.199356 255.635753 
L 568.525927 218.426318 
L 568.852497 266.960363 
L 569.179067 262.106959 
L 569.505638 241.88444 
L 570.485349 266.151463 
L 570.81192 255.635753 
L 571.13849 266.151463 
L 571.46506 262.106959 
L 571.791631 278.284974 
L 572.118201 272.622669 
L 572.444772 271.813768 
L 572.771342 245.928944 
L 573.097913 231.36873 
L 573.424483 235.413234 
L 573.751053 237.031035 
L 574.077624 203.866104 
L 574.404194 241.88444 
L 574.730765 214.381814 
L 575.057335 199.8216 
L 575.383906 231.36873 
L 575.710476 241.075539 
L 576.037046 201.439402 
L 576.363617 193.350394 
L 576.690187 215.190715 
L 577.016758 214.381814 
L 577.343328 199.8216 
L 577.669899 210.33731 
L 577.996469 215.190715 
L 578.323039 235.413234 
L 578.64961 211.955111 
L 578.97618 237.839936 
L 579.302751 272.622669 
L 579.629321 260.489157 
L 580.282462 249.164547 
L 580.609032 264.533661 
L 580.935603 258.871356 
L 581.262173 225.706424 
L 581.588744 228.133127 
L 581.915314 227.324226 
L 582.241885 228.133127 
L 582.568455 218.426318 
L 582.895025 217.617417 
L 583.221596 245.928944 
L 583.548166 234.604333 
L 583.874737 233.795432 
L 584.201307 226.515325 
L 584.527877 230.559829 
L 584.854448 219.235218 
L 585.181018 225.706424 
L 585.507589 221.661921 
L 585.834159 223.279722 
L 586.16073 229.750928 
L 586.4873 253.20905 
L 586.81387 239.457737 
L 587.140441 245.928944 
L 587.467011 220.044119 
L 587.793582 208.719508 
L 588.120152 236.222134 
L 588.446723 217.617417 
L 588.773293 228.942027 
L 589.099863 219.235218 
L 589.426434 218.426318 
L 589.753004 258.871356 
L 590.079575 260.489157 
L 590.406145 288.800684 
L 590.732716 278.284974 
L 591.059286 287.182882 
L 591.385856 275.858272 
L 591.712427 271.004867 
L 592.038997 286.373982 
L 592.365568 283.947279 
L 592.692138 279.093875 
L 593.018709 254.017951 
L 593.671849 220.044119 
L 593.99842 226.515325 
L 594.32499 203.057203 
L 594.978131 197.394898 
L 595.304702 213.572913 
L 595.631272 214.381814 
L 595.957842 239.457737 
L 596.610983 223.279722 
L 597.264124 255.635753 
L 597.590694 249.164547 
L 597.917265 270.195966 
L 598.243835 252.40015 
L 598.570406 255.635753 
L 598.896976 231.36873 
L 599.223547 235.413234 
L 599.550117 220.85302 
L 599.876687 249.973447 
L 600.203258 262.106959 
L 600.529828 263.72476 
L 601.182969 285.565081 
L 601.50954 281.520577 
L 601.83611 250.782348 
L 602.489251 235.413234 
L 602.815821 241.075539 
L 603.142392 224.897524 
L 603.468962 221.661921 
L 603.795533 220.85302 
L 604.122103 240.266638 
L 604.448673 212.764012 
L 604.775244 203.866104 
L 605.101814 227.324226 
L 605.428385 228.942027 
L 605.754955 244.311142 
L 606.081526 242.69334 
L 606.408096 253.20905 
L 606.734666 259.680256 
L 607.061237 281.520577 
L 607.387807 283.947279 
L 607.714378 296.080791 
L 608.040948 272.622669 
L 608.694089 253.20905 
L 609.020659 255.635753 
L 609.34723 246.737844 
L 609.6738 251.591249 
L 610.326941 228.133127 
L 610.653512 231.36873 
L 610.980082 241.075539 
L 611.306652 226.515325 
L 611.633223 219.235218 
L 611.959793 207.910608 
L 612.286364 210.33731 
L 612.612934 214.381814 
L 613.266075 236.222134 
L 613.592645 254.017951 
L 613.919216 225.706424 
L 614.245786 242.69334 
L 614.572357 234.604333 
L 615.225497 234.604333 
L 615.552068 241.075539 
L 615.878638 265.342562 
L 616.205209 241.075539 
L 616.85835 264.533661 
L 617.18492 259.680256 
L 617.51149 250.782348 
L 617.838061 246.737844 
L 618.164631 260.489157 
L 618.491202 258.062455 
L 618.817772 234.604333 
L 619.144343 229.750928 
L 619.470913 235.413234 
L 619.797483 232.177631 
L 620.124054 232.177631 
L 620.450624 231.36873 
L 620.777195 237.839936 
L 621.103765 233.795432 
L 621.430336 232.986531 
L 621.756906 239.457737 
L 622.083476 220.044119 
L 622.410047 237.031035 
L 622.736617 224.897524 
L 623.063188 206.292806 
L 623.389758 215.190715 
L 623.716329 215.190715 
L 624.042899 233.795432 
L 624.369469 220.044119 
L 624.69604 236.222134 
L 625.02261 238.648837 
L 625.675751 259.680256 
L 626.002321 248.355646 
L 626.328892 248.355646 
L 626.655462 231.36873 
L 626.982033 228.942027 
L 627.308603 245.928944 
L 627.635174 237.839936 
L 627.961744 249.164547 
L 628.288314 268.578165 
L 628.941455 256.444653 
L 629.268026 253.20905 
L 629.594596 242.69334 
L 629.921167 245.928944 
L 630.247737 251.591249 
L 630.574307 248.355646 
L 630.900878 264.533661 
L 631.227448 257.253554 
L 631.554019 238.648837 
L 631.880589 238.648837 
L 632.20716 236.222134 
L 632.53373 246.737844 
L 632.8603 233.795432 
L 633.186871 243.502241 
L 633.513441 241.88444 
L 633.840012 251.591249 
L 634.166582 241.88444 
L 634.493153 245.928944 
L 634.819723 234.604333 
L 635.146293 248.355646 
L 635.472864 257.253554 
L 635.799434 253.20905 
L 636.126005 254.826852 
L 636.452575 239.457737 
L 636.779146 262.106959 
L 637.105716 258.871356 
L 637.432286 244.311142 
L 637.758857 249.973447 
L 638.085427 250.782348 
L 638.411998 249.164547 
L 638.738568 237.031035 
L 639.065139 233.795432 
L 639.391709 235.413234 
L 640.04485 233.795432 
L 640.37142 231.36873 
L 640.697991 239.457737 
L 641.024561 241.075539 
L 641.351131 246.737844 
L 641.677702 254.826852 
L 642.004272 250.782348 
L 642.330843 250.782348 
L 642.657413 251.591249 
L 642.983984 259.680256 
L 643.310554 255.635753 
L 643.963695 261.298058 
L 644.290265 252.40015 
L 644.616836 249.164547 
L 644.943406 238.648837 
L 645.269977 252.40015 
L 645.923117 255.635753 
L 646.249688 258.062455 
L 646.576258 234.604333 
L 646.902829 231.36873 
L 647.55597 194.159295 
L 647.88254 203.057203 
L 648.20911 228.942027 
L 648.535681 227.324226 
L 648.862251 249.164547 
L 649.188822 256.444653 
L 649.515392 259.680256 
L 649.841963 251.901867 
L 650.168533 258.871356 
L 650.495103 246.737844 
L 650.821674 254.017951 
L 651.148244 255.635753 
L 651.474815 245.120043 
L 651.801385 264.533661 
L 652.127956 265.342562 
L 652.454526 254.826852 
L 652.781096 258.871356 
L 653.107667 248.355646 
L 653.434237 243.502241 
L 653.760808 236.222134 
L 654.087378 232.177631 
L 654.413948 219.235218 
L 654.740519 233.795432 
L 655.067089 216.808516 
L 655.39366 232.986531 
L 655.72023 226.515325 
L 656.046801 228.133127 
L 656.373371 232.986531 
L 656.699941 227.324226 
L 657.026512 217.617417 
L 657.679653 236.222134 
L 658.006223 242.69334 
L 658.332794 264.533661 
L 658.659364 265.342562 
L 658.985934 271.813768 
L 659.312505 262.106959 
L 659.639075 271.813768 
L 660.292216 281.520577 
L 661.271927 262.106959 
L 661.598498 238.648837 
L 661.925068 237.031035 
L 662.251639 224.088623 
L 662.578209 232.177631 
L 662.90478 224.088623 
L 663.23135 229.750928 
L 663.55792 231.36873 
L 663.884491 246.737844 
L 664.211061 233.795432 
L 664.537632 237.839936 
L 664.864202 248.355646 
L 665.190773 245.120043 
L 665.517343 257.253554 
L 665.843913 232.177631 
L 667.150195 275.049371 
L 667.476766 273.431569 
L 667.803336 277.476073 
L 668.129906 259.680256 
L 668.456477 262.91586 
L 668.783047 260.489157 
L 669.109618 249.164547 
L 669.436188 242.69334 
L 669.762758 225.706424 
L 670.089329 234.604333 
L 670.415899 226.515325 
L 670.74247 221.661921 
L 671.06904 252.40015 
L 671.395611 263.72476 
L 671.722181 261.298058 
L 672.048751 231.36873 
L 672.375322 222.470821 
L 672.701892 245.928944 
L 673.028463 287.182882 
L 673.355033 263.72476 
L 673.681604 266.960363 
L 674.008174 271.813768 
L 674.334744 266.151463 
L 674.661315 268.578165 
L 674.987885 255.635753 
L 675.314456 260.489157 
L 675.641026 249.164547 
L 675.967597 262.91586 
L 676.294167 253.20905 
L 676.620737 254.017951 
L 676.947308 231.36873 
L 677.273878 227.324226 
L 677.600449 228.942027 
L 677.927019 250.782348 
L 678.25359 243.502241 
L 678.58016 264.533661 
L 678.90673 266.960363 
L 679.233301 258.062455 
L 679.559871 245.120043 
L 680.213012 264.533661 
L 680.866153 259.680256 
L 681.192723 267.769264 
L 681.519294 258.062455 
L 681.845864 256.444653 
L 682.172435 244.311142 
L 682.499005 241.075539 
L 683.152146 268.578165 
L 683.478716 265.342562 
L 683.805287 258.871356 
L 684.131857 242.69334 
L 684.784998 278.284974 
L 685.111568 239.457737 
L 685.438139 239.457737 
L 686.09128 277.476073 
L 686.744421 229.750928 
L 687.070991 211.146211 
L 687.397561 215.999615 
L 687.724132 249.973447 
L 688.050702 238.648837 
L 688.377273 244.311142 
L 688.703843 188.496989 
L 689.356984 237.031035 
L 689.683554 237.839936 
L 690.010125 203.866104 
L 690.663266 210.33731 
L 690.989836 231.36873 
L 691.316407 237.031035 
L 691.642977 223.279722 
L 691.969547 235.413234 
L 692.296118 241.075539 
L 692.622688 249.164547 
L 692.949259 235.413234 
L 693.6024 251.591249 
L 693.92897 285.565081 
L 694.25554 277.476073 
L 694.582111 273.431569 
L 694.908681 280.711676 
L 695.235252 268.578165 
L 695.561822 296.080791 
L 695.888393 279.093875 
L 696.214963 284.75618 
L 696.541533 274.24047 
L 697.194674 234.604333 
L 697.521245 237.839936 
L 697.847815 239.457737 
L 698.174385 252.40015 
L 698.500956 245.928944 
L 698.827526 230.559829 
L 699.154097 223.279722 
L 699.480667 235.413234 
L 699.807238 224.897524 
L 700.133808 203.057203 
L 700.460378 215.999615 
L 700.786949 215.999615 
L 701.113519 245.928944 
L 701.44009 259.680256 
L 701.76666 227.324226 
L 702.093231 242.69334 
L 702.419801 217.617417 
L 702.746371 226.515325 
L 703.072942 252.40015 
L 703.399512 251.591249 
L 703.726083 274.24047 
L 704.052653 276.667173 
L 704.379224 295.27189 
L 704.705794 286.373982 
L 705.032364 285.565081 
L 705.358935 236.222134 
L 705.685505 237.031035 
L 706.012076 237.031035 
L 706.338646 229.750928 
L 706.665217 227.324226 
L 706.991787 241.075539 
L 707.318357 245.928944 
L 707.644928 240.266638 
L 707.971498 249.164547 
L 708.298069 253.20905 
L 708.624639 278.284974 
L 708.95121 274.24047 
L 709.27778 248.355646 
L 709.60435 241.88444 
L 709.930921 255.635753 
L 710.257491 242.69334 
L 710.584062 242.69334 
L 710.910632 252.40015 
L 711.237202 242.69334 
L 711.563773 253.20905 
L 711.890343 252.40015 
L 712.543484 273.431569 
L 712.870055 279.093875 
L 713.196625 295.27189 
L 714.176336 288.800684 
L 714.502907 267.769264 
L 714.829477 262.91586 
L 715.156048 265.342562 
L 715.809188 232.177631 
L 716.135759 242.69334 
L 716.462329 242.69334 
L 716.7889 237.031035 
L 717.11547 218.426318 
L 717.442041 215.190715 
L 717.768611 214.381814 
L 718.095181 198.203798 
L 718.421752 203.866104 
L 718.748322 233.795432 
L 719.074893 212.764012 
L 719.401463 229.750928 
L 720.054604 251.591249 
L 720.381174 274.24047 
L 720.707745 273.431569 
L 721.034315 281.520577 
L 721.360886 268.578165 
L 721.687456 280.711676 
L 722.014027 274.24047 
L 722.340597 272.622669 
L 722.667167 262.106959 
L 722.993738 259.680256 
L 723.320308 263.72476 
L 723.646879 271.004867 
L 723.973449 234.604333 
L 724.30002 254.017951 
L 724.62659 224.897524 
L 724.95316 217.617417 
L 725.279731 213.572913 
L 725.606301 212.764012 
L 725.932872 214.381814 
L 726.259442 203.057203 
L 726.586012 222.470821 
L 726.912583 227.324226 
L 727.239153 226.515325 
L 727.565724 220.85302 
L 727.892294 220.85302 
L 728.545435 257.253554 
L 728.872005 256.444653 
L 729.198576 266.151463 
L 729.525146 249.973447 
L 729.851717 273.431569 
L 730.178287 275.858272 
L 730.504858 262.106959 
L 730.831428 275.858272 
L 731.157998 256.444653 
L 731.484569 282.329478 
L 731.811139 296.889692 
L 732.13771 292.845188 
L 732.46428 283.947279 
L 732.790851 293.654089 
L 733.117421 277.476073 
L 733.770562 274.24047 
L 734.097132 245.928944 
L 734.423703 255.635753 
L 734.750273 228.942027 
L 735.076844 233.795432 
L 735.403414 211.146211 
L 735.729984 220.044119 
L 736.056555 223.279722 
L 736.383125 245.928944 
L 737.036266 228.133127 
L 737.362837 227.324226 
L 737.689407 252.40015 
L 738.015977 249.164547 
L 738.342548 262.106959 
L 738.669118 266.960363 
L 738.995689 241.075539 
L 739.322259 268.578165 
L 739.648829 262.91586 
L 739.9754 286.373982 
L 740.30197 265.342562 
L 740.628541 275.858272 
L 740.955111 267.769264 
L 741.608252 241.88444 
L 742.261393 245.928944 
L 742.587963 239.457737 
L 742.914534 212.764012 
L 743.241104 205.483905 
L 743.567675 194.968195 
L 743.894245 208.719508 
L 744.220815 239.457737 
L 744.547386 253.20905 
L 744.873956 254.826852 
L 745.200527 257.253554 
L 745.527097 262.106959 
L 745.853668 271.813768 
L 746.506808 254.826852 
L 746.833379 253.20905 
L 747.159949 253.20905 
L 747.48652 237.839936 
L 747.81309 230.559829 
L 748.139661 248.355646 
L 748.792801 215.999615 
L 749.119372 222.470821 
L 749.445942 224.897524 
L 749.772513 213.572913 
L 750.099083 227.324226 
L 750.425654 222.470821 
L 750.752224 248.355646 
L 751.078794 232.177631 
L 751.405365 273.431569 
L 751.731935 276.667173 
L 752.058506 266.151463 
L 752.385076 263.72476 
L 752.711647 300.125295 
L 753.038217 285.565081 
L 753.364787 312.258806 
L 753.691358 318.730012 
L 754.017928 291.227386 
L 754.344499 283.947279 
L 754.671069 266.151463 
L 754.997639 261.298058 
L 755.32421 251.591249 
L 755.65078 225.706424 
L 755.977351 223.279722 
L 756.630492 205.483905 
L 756.957062 239.457737 
L 757.283632 229.750928 
L 757.936773 262.106959 
L 758.263344 254.826852 
L 758.589914 268.578165 
L 758.916485 262.91586 
L 759.243055 247.546745 
L 759.569625 276.667173 
L 759.896196 287.182882 
L 760.222766 239.457737 
L 760.549337 257.253554 
L 760.875907 229.750928 
L 761.202478 248.355646 
L 761.855618 225.706424 
L 762.182189 237.839936 
L 762.508759 234.604333 
L 763.1619 249.164547 
L 763.488471 245.928944 
L 763.815041 249.164547 
L 764.141611 274.24047 
L 764.468182 261.298058 
L 764.794752 258.062455 
L 765.121323 265.342562 
L 765.447893 268.578165 
L 765.774464 228.942027 
L 766.101034 224.088623 
L 766.427604 229.750928 
L 766.754175 206.292806 
L 767.080745 213.572913 
L 767.407316 241.075539 
L 767.733886 226.515325 
L 768.060456 258.062455 
L 768.387027 240.266638 
L 768.713597 265.342562 
L 769.040168 271.813768 
L 769.366738 269.387066 
L 769.693309 260.489157 
L 770.019879 286.373982 
L 770.346449 234.604333 
L 770.67302 244.311142 
L 770.99959 248.355646 
L 771.326161 190.114791 
L 771.652731 223.279722 
L 771.979302 205.483905 
L 772.305872 213.572913 
L 772.632442 252.40015 
L 772.959013 249.973447 
L 773.612154 255.635753 
L 774.265295 294.462989 
L 774.591865 267.769264 
L 774.918435 296.080791 
L 775.245006 242.69334 
L 775.571576 245.120043 
L 775.898147 255.635753 
L 776.224717 249.164547 
L 776.551288 234.604333 
L 776.877858 225.706424 
L 777.204428 247.546745 
L 777.530999 223.279722 
L 777.857569 236.222134 
L 778.18414 259.680256 
L 778.51071 232.177631 
L 778.837281 256.444653 
L 779.163851 255.635753 
L 779.490421 287.991783 
L 779.816992 238.648837 
L 780.143562 266.960363 
L 780.470133 224.897524 
L 780.796703 224.897524 
L 781.123274 240.266638 
L 781.449844 201.439402 
L 781.776414 238.648837 
L 782.102985 226.515325 
L 782.429555 271.004867 
L 782.756126 258.062455 
L 783.082696 255.635753 
L 783.409266 265.342562 
L 783.735837 245.120043 
L 784.062407 270.195966 
L 784.388978 234.604333 
L 784.715548 234.604333 
L 785.042119 235.413234 
L 785.368689 223.279722 
L 785.695259 202.248302 
L 786.02183 241.88444 
L 786.3484 232.177631 
L 786.674971 239.457737 
L 787.001541 261.298058 
L 787.328112 249.973447 
L 787.654682 251.591249 
L 787.981252 260.489157 
L 788.307823 262.106959 
L 788.634393 243.502241 
L 788.960964 259.680256 
L 789.287534 223.279722 
L 789.614105 251.591249 
L 789.940675 266.960363 
L 790.267245 233.795432 
L 790.593816 244.311142 
L 790.920386 239.457737 
L 791.246957 272.622669 
L 791.573527 266.151463 
L 791.900098 271.813768 
L 792.226668 248.355646 
L 792.553238 279.902776 
L 792.879809 234.604333 
L 793.206379 251.591249 
L 793.53295 211.146211 
L 793.85952 206.292806 
L 794.512661 245.928944 
L 794.839231 222.470821 
L 795.165802 217.617417 
L 795.492372 235.413234 
L 795.818943 261.298058 
L 796.145513 224.088623 
L 796.472083 271.004867 
L 796.798654 241.88444 
L 797.125224 248.355646 
L 797.451795 237.031035 
L 797.778365 207.910608 
L 798.431506 247.546745 
L 798.758076 251.591249 
L 799.084647 253.20905 
L 799.411217 258.062455 
L 799.737788 269.387066 
L 800.064358 258.871356 
L 800.717499 229.750928 
L 801.044069 240.266638 
L 801.37064 236.222134 
L 801.69721 249.973447 
L 802.023781 271.004867 
L 802.350351 246.737844 
L 802.676922 281.520577 
L 803.003492 260.489157 
L 803.330062 247.546745 
L 803.656633 259.680256 
L 803.983203 241.075539 
L 804.309774 232.177631 
L 804.636344 235.413234 
L 804.962915 220.85302 
L 805.289485 216.808516 
L 805.616055 196.585997 
L 805.942626 234.604333 
L 806.269196 237.839936 
L 806.595767 234.604333 
L 806.922337 280.711676 
L 807.248908 226.515325 
L 807.575478 249.164547 
L 807.902048 256.444653 
L 808.228619 233.795432 
L 808.555189 261.298058 
L 808.88176 213.572913 
L 809.20833 266.960363 
L 809.534901 273.431569 
L 809.861471 240.266638 
L 810.188041 269.387066 
L 810.514612 255.635753 
L 810.841182 276.667173 
L 811.167753 277.476073 
L 811.494323 237.031035 
L 811.820893 245.120043 
L 812.147464 246.737844 
L 812.474034 260.489157 
L 812.800605 265.342562 
L 813.127175 199.012699 
L 813.453746 254.017951 
L 813.780316 237.839936 
L 814.106886 186.070287 
L 814.433457 288.800684 
L 814.760027 210.33731 
L 815.086598 224.088623 
L 815.413168 262.91586 
L 815.739739 219.235218 
L 816.066309 207.910608 
L 816.392879 272.622669 
L 816.71945 286.373982 
L 817.04602 217.617417 
L 817.372591 278.284974 
L 817.699161 237.031035 
L 818.025732 254.017951 
L 818.352302 262.106959 
L 818.678872 249.164547 
L 819.005443 245.120043 
L 819.658584 204.675005 
L 820.311725 176.363478 
L 820.638295 205.483905 
L 820.964865 194.159295 
L 821.291436 238.648837 
L 821.618006 214.381814 
L 821.944577 246.737844 
L 822.271147 233.795432 
L 822.597718 196.585997 
L 822.924288 210.33731 
L 823.250858 207.910608 
L 823.577429 207.910608 
L 823.903999 233.795432 
L 824.23057 207.910608 
L 824.55714 194.968195 
L 824.88371 194.159295 
L 825.210281 199.8216 
L 825.863422 198.203798 
L 826.189992 202.248302 
L 826.516563 198.203798 
L 826.843133 224.897524 
L 827.169703 228.133127 
L 827.496274 202.248302 
L 827.822844 186.879188 
L 828.149415 184.452485 
L 828.475985 156.94986 
L 828.802556 220.85302 
L 829.129126 228.133127 
L 829.782267 176.363478 
L 830.108837 193.350394 
L 830.435408 171.510073 
L 830.761978 228.942027 
L 831.088549 237.031035 
L 831.415119 209.528409 
L 831.741689 203.866104 
L 832.06826 224.897524 
L 832.39483 230.559829 
L 832.721401 228.133127 
L 833.047971 238.648837 
L 833.374542 226.515325 
L 833.701112 252.40015 
L 834.354253 270.195966 
L 834.680823 215.190715 
L 835.007394 217.617417 
L 835.333964 264.533661 
L 835.660535 292.036287 
L 835.987105 266.151463 
L 836.313675 223.279722 
L 836.640246 263.72476 
L 836.966816 213.572913 
L 837.293387 240.266638 
L 837.619957 249.973447 
L 837.946528 246.737844 
L 838.273098 253.20905 
L 838.599668 223.279722 
L 838.926239 235.413234 
L 839.252809 262.106959 
L 839.57938 268.578165 
L 839.90595 253.20905 
L 840.23252 226.515325 
L 840.559091 234.604333 
L 840.559091 234.604333 
" style="fill:none;stroke:#1f77b4;stroke-linecap:square;stroke-width:1.5;"/>
   </g>
   <g id="patch_3">
    <path d="M 121.5 538.9128 
L 121.5 72.6624 
" style="fill:none;stroke:#000000;stroke-linecap:square;stroke-linejoin:miter;stroke-width:0.8;"/>
   </g>
   <g id="patch_4">
    <path d="M 874.8 538.9128 
L 874.8 72.6624 
" style="fill:none;stroke:#000000;stroke-linecap:square;stroke-linejoin:miter;stroke-width:0.8;"/>
   </g>
   <g id="patch_5">
    <path d="M 121.5 538.9128 
L 874.8 538.9128 
" style="fill:none;stroke:#000000;stroke-linecap:square;stroke-linejoin:miter;stroke-width:0.8;"/>
   </g>
   <g id="patch_6">
    <path d="M 121.5 72.6624 
L 874.8 72.6624 
" style="fill:none;stroke:#000000;stroke-linecap:square;stroke-linejoin:miter;stroke-width:0.8;"/>
   </g>
  </g>
 </g>
 <defs>
  <clipPath id="pd43d118f4f">
   <rect height="466.2504" width="753.3" x="121.5" y="72.6624"/>
  </clipPath>
 </defs>
</svg>
